<mxfile host="app.diagrams.net" modified="2023-09-20T18:40:17.449Z" agent="Mozilla/5.0 (Windows NT 10.0; Win64; x64) AppleWebKit/537.36 (KHTML, like Gecko) Chrome/116.0.0.0 Safari/537.36" etag="jdbJBuUqESpez0SuzFhG" version="21.7.5" type="device">
  <diagram id="7q6WzZqFf9v9yzIv_zda" name="Use case">
    <mxGraphModel dx="2074" dy="1586" grid="0" gridSize="10" guides="1" tooltips="1" connect="1" arrows="1" fold="1" page="0" pageScale="1" pageWidth="850" pageHeight="1100" math="0" shadow="0">
      <root>
        <mxCell id="0" />
        <mxCell id="1" parent="0" />
        <mxCell id="SSoZlEEdxV4zL4xD8buy-2" value="Accountant" style="shape=umlActor;verticalLabelPosition=bottom;verticalAlign=top;html=1;outlineConnect=0;fillColor=#FFFFFF;" parent="1" vertex="1">
          <mxGeometry x="80" y="180" width="30" height="60" as="geometry" />
        </mxCell>
        <mxCell id="SSoZlEEdxV4zL4xD8buy-3" value="" style="endArrow=none;html=1;" parent="1" edge="1">
          <mxGeometry width="50" height="50" relative="1" as="geometry">
            <mxPoint x="110" y="212" as="sourcePoint" />
            <mxPoint x="200" y="212" as="targetPoint" />
          </mxGeometry>
        </mxCell>
        <mxCell id="okeo2Aa4OqrN3XAgRoa3-2" style="edgeStyle=orthogonalEdgeStyle;rounded=1;orthogonalLoop=1;jettySize=auto;html=1;entryX=0;entryY=0.5;entryDx=0;entryDy=0;dashed=1;strokeWidth=1;endFill=0;endArrow=open;curved=1;exitX=0.5;exitY=0;exitDx=0;exitDy=0;" parent="1" source="SSoZlEEdxV4zL4xD8buy-4" target="okeo2Aa4OqrN3XAgRoa3-1" edge="1">
          <mxGeometry relative="1" as="geometry" />
        </mxCell>
        <mxCell id="SSoZlEEdxV4zL4xD8buy-4" value="Request Payment" style="ellipse;whiteSpace=wrap;html=1;fillColor=#FFFFFF;" parent="1" vertex="1">
          <mxGeometry x="200" y="170" width="120" height="80" as="geometry" />
        </mxCell>
        <mxCell id="SSoZlEEdxV4zL4xD8buy-5" value="Audit Logging" style="ellipse;whiteSpace=wrap;html=1;fillColor=#FFFFFF;" parent="1" vertex="1">
          <mxGeometry x="390" y="310" width="120" height="80" as="geometry" />
        </mxCell>
        <mxCell id="SSoZlEEdxV4zL4xD8buy-10" value="" style="endArrow=open;dashed=1;html=1;entryX=0;entryY=0.5;entryDx=0;entryDy=0;edgeStyle=orthogonalEdgeStyle;curved=1;endFill=0;strokeWidth=1;exitX=0.5;exitY=1;exitDx=0;exitDy=0;" parent="1" source="SSoZlEEdxV4zL4xD8buy-4" target="SSoZlEEdxV4zL4xD8buy-5" edge="1">
          <mxGeometry width="50" height="50" relative="1" as="geometry">
            <mxPoint x="180" y="340" as="sourcePoint" />
            <mxPoint x="170" y="320" as="targetPoint" />
          </mxGeometry>
        </mxCell>
        <mxCell id="okeo2Aa4OqrN3XAgRoa3-1" value="Role-based Access" style="ellipse;whiteSpace=wrap;html=1;" parent="1" vertex="1">
          <mxGeometry x="390" y="40" width="120" height="80" as="geometry" />
        </mxCell>
        <mxCell id="okeo2Aa4OqrN3XAgRoa3-3" style="edgeStyle=orthogonalEdgeStyle;rounded=0;orthogonalLoop=1;jettySize=auto;html=1;entryX=1;entryY=0.5;entryDx=0;entryDy=0;endArrow=none;endFill=0;" parent="1" source="okeo2Aa4OqrN3XAgRoa3-4" edge="1">
          <mxGeometry relative="1" as="geometry">
            <mxPoint x="660" y="210" as="targetPoint" />
          </mxGeometry>
        </mxCell>
        <mxCell id="okeo2Aa4OqrN3XAgRoa3-4" value="Rogue Employee" style="shape=umlActor;verticalLabelPosition=bottom;verticalAlign=top;html=1;outlineConnect=0;fillColor=#000000;" parent="1" vertex="1">
          <mxGeometry x="760" y="180" width="30" height="60" as="geometry" />
        </mxCell>
        <mxCell id="okeo2Aa4OqrN3XAgRoa3-5" style="edgeStyle=orthogonalEdgeStyle;curved=1;rounded=0;orthogonalLoop=1;jettySize=auto;html=1;entryX=1;entryY=0.5;entryDx=0;entryDy=0;dashed=1;endArrow=open;endFill=0;strokeWidth=1;" parent="1" source="okeo2Aa4OqrN3XAgRoa3-7" edge="1">
          <mxGeometry relative="1" as="geometry">
            <mxPoint x="320" y="210" as="targetPoint" />
          </mxGeometry>
        </mxCell>
        <mxCell id="okeo2Aa4OqrN3XAgRoa3-6" value="&amp;lt;&amp;lt;Threatens&amp;gt;&amp;gt;" style="edgeLabel;html=1;align=center;verticalAlign=middle;resizable=0;points=[];" parent="okeo2Aa4OqrN3XAgRoa3-5" vertex="1" connectable="0">
          <mxGeometry x="0.1143" y="1" relative="1" as="geometry">
            <mxPoint y="9" as="offset" />
          </mxGeometry>
        </mxCell>
        <mxCell id="okeo2Aa4OqrN3XAgRoa3-7" value="Hide Funds" style="ellipse;whiteSpace=wrap;html=1;fillColor=#000000;fontColor=#FFFFFF;" parent="1" vertex="1">
          <mxGeometry x="540" y="170" width="120" height="80" as="geometry" />
        </mxCell>
        <mxCell id="okeo2Aa4OqrN3XAgRoa3-8" style="edgeStyle=orthogonalEdgeStyle;curved=1;rounded=0;orthogonalLoop=1;jettySize=auto;html=1;dashed=1;endArrow=open;endFill=0;strokeWidth=1;exitX=1;exitY=0.5;exitDx=0;exitDy=0;entryX=0.5;entryY=1;entryDx=0;entryDy=0;" parent="1" source="SSoZlEEdxV4zL4xD8buy-5" target="okeo2Aa4OqrN3XAgRoa3-7" edge="1">
          <mxGeometry relative="1" as="geometry">
            <mxPoint x="430" y="280" as="targetPoint" />
            <mxPoint x="440" y="350" as="sourcePoint" />
          </mxGeometry>
        </mxCell>
        <mxCell id="okeo2Aa4OqrN3XAgRoa3-9" value="&amp;lt;&amp;lt;Prevents&amp;gt;&amp;gt;" style="edgeLabel;html=1;align=center;verticalAlign=middle;resizable=0;points=[];" parent="okeo2Aa4OqrN3XAgRoa3-8" vertex="1" connectable="0">
          <mxGeometry x="-0.2286" y="23" relative="1" as="geometry">
            <mxPoint x="21" y="3" as="offset" />
          </mxGeometry>
        </mxCell>
        <mxCell id="rESLXzUHiSl0k0ymJ8O6-1" value="Incorrect Access Level" style="ellipse;whiteSpace=wrap;html=1;fillColor=#000000;fontColor=#FFFFFF;" parent="1" vertex="1">
          <mxGeometry x="590" y="-100" width="120" height="80" as="geometry" />
        </mxCell>
        <mxCell id="rESLXzUHiSl0k0ymJ8O6-2" style="edgeStyle=orthogonalEdgeStyle;rounded=0;orthogonalLoop=1;jettySize=auto;html=1;entryX=1;entryY=0.5;entryDx=0;entryDy=0;endArrow=none;endFill=0;exitX=0.5;exitY=0;exitDx=0;exitDy=0;exitPerimeter=0;" parent="1" source="okeo2Aa4OqrN3XAgRoa3-4" edge="1">
          <mxGeometry relative="1" as="geometry">
            <mxPoint x="660" y="-40.5" as="targetPoint" />
            <mxPoint x="760" y="-40.5" as="sourcePoint" />
            <Array as="points">
              <mxPoint x="775" y="-40" />
            </Array>
          </mxGeometry>
        </mxCell>
        <mxCell id="rESLXzUHiSl0k0ymJ8O6-3" style="edgeStyle=orthogonalEdgeStyle;curved=1;rounded=0;orthogonalLoop=1;jettySize=auto;html=1;dashed=1;endArrow=open;endFill=0;strokeWidth=1;exitX=0;exitY=0.5;exitDx=0;exitDy=0;" parent="1" source="rESLXzUHiSl0k0ymJ8O6-1" target="okeo2Aa4OqrN3XAgRoa3-1" edge="1">
          <mxGeometry relative="1" as="geometry">
            <mxPoint x="320" y="-40.5" as="targetPoint" />
            <mxPoint x="540" y="-40.5" as="sourcePoint" />
          </mxGeometry>
        </mxCell>
        <mxCell id="rESLXzUHiSl0k0ymJ8O6-4" value="&amp;lt;&amp;lt;Threatens&amp;gt;&amp;gt;" style="edgeLabel;html=1;align=center;verticalAlign=middle;resizable=0;points=[];" parent="rESLXzUHiSl0k0ymJ8O6-3" vertex="1" connectable="0">
          <mxGeometry x="0.1143" y="1" relative="1" as="geometry">
            <mxPoint y="9" as="offset" />
          </mxGeometry>
        </mxCell>
        <mxCell id="rESLXzUHiSl0k0ymJ8O6-6" value="Manager" style="shape=umlActor;verticalLabelPosition=bottom;verticalAlign=top;html=1;outlineConnect=0;fillColor=#FFFFFF;" parent="1" vertex="1">
          <mxGeometry x="80" y="-80" width="30" height="60" as="geometry" />
        </mxCell>
        <mxCell id="rESLXzUHiSl0k0ymJ8O6-7" value="Access Level Auditing" style="ellipse;whiteSpace=wrap;html=1;fillColor=#FFFFFF;" parent="1" vertex="1">
          <mxGeometry x="200" y="-90" width="120" height="80" as="geometry" />
        </mxCell>
        <mxCell id="rESLXzUHiSl0k0ymJ8O6-8" value="" style="endArrow=none;html=1;entryX=0;entryY=0.5;entryDx=0;entryDy=0;" parent="1" target="rESLXzUHiSl0k0ymJ8O6-7" edge="1">
          <mxGeometry width="50" height="50" relative="1" as="geometry">
            <mxPoint x="120" y="-50.5" as="sourcePoint" />
            <mxPoint x="190" y="-50" as="targetPoint" />
          </mxGeometry>
        </mxCell>
        <mxCell id="rESLXzUHiSl0k0ymJ8O6-13" style="edgeStyle=orthogonalEdgeStyle;curved=1;rounded=0;orthogonalLoop=1;jettySize=auto;html=1;dashed=1;endArrow=open;endFill=0;strokeWidth=1;exitX=1;exitY=0.5;exitDx=0;exitDy=0;" parent="1" source="rESLXzUHiSl0k0ymJ8O6-7" edge="1">
          <mxGeometry relative="1" as="geometry">
            <mxPoint x="650" y="-100" as="targetPoint" />
            <mxPoint x="280" y="-130" as="sourcePoint" />
            <Array as="points">
              <mxPoint x="430" y="-50" />
              <mxPoint x="430" y="-140" />
              <mxPoint x="650" y="-140" />
            </Array>
          </mxGeometry>
        </mxCell>
        <mxCell id="rESLXzUHiSl0k0ymJ8O6-14" value="&amp;lt;&amp;lt;Prevents&amp;gt;&amp;gt;" style="edgeLabel;html=1;align=center;verticalAlign=middle;resizable=0;points=[];" parent="rESLXzUHiSl0k0ymJ8O6-13" vertex="1" connectable="0">
          <mxGeometry x="-0.2286" y="23" relative="1" as="geometry">
            <mxPoint x="18" y="-13" as="offset" />
          </mxGeometry>
        </mxCell>
        <mxCell id="rESLXzUHiSl0k0ymJ8O6-15" style="edgeStyle=orthogonalEdgeStyle;curved=1;rounded=0;orthogonalLoop=1;jettySize=auto;html=1;dashed=1;endArrow=open;endFill=0;strokeWidth=1;exitX=1;exitY=0.5;exitDx=0;exitDy=0;entryX=0.5;entryY=0;entryDx=0;entryDy=0;" parent="1" source="okeo2Aa4OqrN3XAgRoa3-1" target="okeo2Aa4OqrN3XAgRoa3-7" edge="1">
          <mxGeometry relative="1" as="geometry">
            <mxPoint x="644.75" as="targetPoint" />
            <mxPoint x="554.75" y="100" as="sourcePoint" />
          </mxGeometry>
        </mxCell>
        <mxCell id="rESLXzUHiSl0k0ymJ8O6-16" value="&amp;lt;&amp;lt;Prevents&amp;gt;&amp;gt;" style="edgeLabel;html=1;align=center;verticalAlign=middle;resizable=0;points=[];" parent="rESLXzUHiSl0k0ymJ8O6-15" vertex="1" connectable="0">
          <mxGeometry x="-0.2286" y="23" relative="1" as="geometry">
            <mxPoint x="41" y="63" as="offset" />
          </mxGeometry>
        </mxCell>
        <mxCell id="rESLXzUHiSl0k0ymJ8O6-17" value="Input Bad Data" style="ellipse;whiteSpace=wrap;html=1;fillColor=#000000;fontColor=#FFFFFF;" parent="1" vertex="1">
          <mxGeometry x="590" y="440" width="120" height="80" as="geometry" />
        </mxCell>
        <mxCell id="rESLXzUHiSl0k0ymJ8O6-18" style="edgeStyle=orthogonalEdgeStyle;rounded=0;orthogonalLoop=1;jettySize=auto;html=1;endArrow=none;endFill=0;exitX=1;exitY=0.5;exitDx=0;exitDy=0;" parent="1" source="rESLXzUHiSl0k0ymJ8O6-17" target="okeo2Aa4OqrN3XAgRoa3-4" edge="1">
          <mxGeometry relative="1" as="geometry">
            <mxPoint x="690" y="390" as="targetPoint" />
            <mxPoint x="790" y="390" as="sourcePoint" />
          </mxGeometry>
        </mxCell>
        <mxCell id="rESLXzUHiSl0k0ymJ8O6-19" value="Data Validation" style="ellipse;whiteSpace=wrap;html=1;fillColor=#FFFFFF;" parent="1" vertex="1">
          <mxGeometry x="390" y="440" width="120" height="80" as="geometry" />
        </mxCell>
        <mxCell id="rESLXzUHiSl0k0ymJ8O6-20" style="edgeStyle=orthogonalEdgeStyle;curved=1;rounded=0;orthogonalLoop=1;jettySize=auto;html=1;dashed=1;endArrow=open;endFill=0;strokeWidth=1;exitX=1;exitY=0.5;exitDx=0;exitDy=0;entryX=0;entryY=0.5;entryDx=0;entryDy=0;" parent="1" source="rESLXzUHiSl0k0ymJ8O6-19" target="rESLXzUHiSl0k0ymJ8O6-17" edge="1">
          <mxGeometry relative="1" as="geometry">
            <mxPoint x="570" y="540" as="targetPoint" />
            <mxPoint x="540" y="580" as="sourcePoint" />
          </mxGeometry>
        </mxCell>
        <mxCell id="rESLXzUHiSl0k0ymJ8O6-21" value="&amp;lt;&amp;lt;Prevents&amp;gt;&amp;gt;" style="edgeLabel;html=1;align=center;verticalAlign=middle;resizable=0;points=[];" parent="rESLXzUHiSl0k0ymJ8O6-20" vertex="1" connectable="0">
          <mxGeometry x="-0.2286" y="23" relative="1" as="geometry">
            <mxPoint x="9" y="3" as="offset" />
          </mxGeometry>
        </mxCell>
        <mxCell id="rESLXzUHiSl0k0ymJ8O6-22" value="" style="endArrow=open;dashed=1;html=1;entryX=0;entryY=0.5;entryDx=0;entryDy=0;edgeStyle=orthogonalEdgeStyle;curved=1;endFill=0;strokeWidth=1;exitX=0.5;exitY=1;exitDx=0;exitDy=0;" parent="1" source="SSoZlEEdxV4zL4xD8buy-4" target="rESLXzUHiSl0k0ymJ8O6-19" edge="1">
          <mxGeometry width="50" height="50" relative="1" as="geometry">
            <mxPoint x="250" y="380" as="sourcePoint" />
            <mxPoint x="380" y="480" as="targetPoint" />
          </mxGeometry>
        </mxCell>
        <mxCell id="S9fvYoXukioLjAepd0uY-1" style="edgeStyle=orthogonalEdgeStyle;curved=1;rounded=0;orthogonalLoop=1;jettySize=auto;html=1;dashed=1;endArrow=open;endFill=0;strokeWidth=1;exitX=0.5;exitY=0;exitDx=0;exitDy=0;entryX=1;entryY=1;entryDx=0;entryDy=0;" edge="1" parent="1" source="rESLXzUHiSl0k0ymJ8O6-17" target="SSoZlEEdxV4zL4xD8buy-5">
          <mxGeometry relative="1" as="geometry">
            <mxPoint x="700" y="410" as="targetPoint" />
            <mxPoint x="700" y="320" as="sourcePoint" />
          </mxGeometry>
        </mxCell>
        <mxCell id="S9fvYoXukioLjAepd0uY-2" value="&amp;lt;&amp;lt;Threatens&amp;gt;&amp;gt;" style="edgeLabel;html=1;align=center;verticalAlign=middle;resizable=0;points=[];" vertex="1" connectable="0" parent="S9fvYoXukioLjAepd0uY-1">
          <mxGeometry x="0.1143" y="1" relative="1" as="geometry">
            <mxPoint x="27" y="-16" as="offset" />
          </mxGeometry>
        </mxCell>
      </root>
    </mxGraphModel>
  </diagram>
</mxfile>
